<svg width="37" height="30" viewBox="0 0 37 30" fill="none" xmlns="http://www.w3.org/2000/svg">
<path d="M36.8485 8.88644C30.3251 15.8822 23.0417 22.2476 16.3283 29.0543C13.9216 29.1173 10.8183 28.9912 8.4116 28.9282C5.68824 29.1173 2.96489 29.0543 0.241532 28.6761C-1.53181 27.3526 7.01825 27.8568 7.71492 27.9828C7.77826 25.714 7.77826 23.13 8.09493 20.9241C8.4116 19.5376 8.53826 21.4283 8.53826 22.5627V27.5417V28.0459C10.7549 28.1719 13.6683 28.0459 15.9483 28.0459C22.155 21.2392 29.3118 15.1889 35.5818 8.38225L35.2018 8.0041C33.4285 6.30244 30.2618 3.02517 28.3618 1.38654C25.4484 4.03356 13.035 16.2603 9.99494 19.1594C7.77826 21.2392 7.77826 20.546 9.48827 18.7813C15.505 12.4788 21.4584 6.30244 27.7284 0.315122C27.8551 0.189073 28.1084 0 28.2984 0C28.5518 0.0630244 28.8051 0.189073 28.9951 0.378147C31.0218 2.20585 34.0618 5.23103 36.0251 7.12176C36.3418 7.43688 36.9118 7.87805 36.9752 8.38225C37.0385 8.5083 36.9752 8.76039 36.8485 8.88644ZM31.1484 9.20156C25.9551 14.0544 21.205 19.3485 16.3917 24.5165C15.125 25.903 15.125 26.6593 16.835 24.9577C22.345 19.4745 27.8551 13.8654 33.4918 8.57132C33.6818 8.19317 33.4285 7.94108 33.1751 7.68898C32.8585 7.37386 32.2884 6.80664 31.9718 6.49151C31.2751 5.79825 29.8818 4.41171 29.1851 3.78146C28.8051 3.40332 28.2984 2.96215 27.8551 3.40332C21.965 9.39064 15.6317 15.2519 10.3116 21.6804C10.2483 22.7518 10.2483 24.4535 10.1849 25.5249C10.1849 25.84 10.1216 26.3442 10.6283 26.3442C10.8816 26.2812 16.7083 26.0921 14.8083 25.5879C10.1849 25.0837 10.9449 27.2265 11.1983 21.8695C16.7717 16.0082 22.5984 10.336 28.2984 4.66381C29.3751 5.73522 30.9584 7.24781 31.9718 8.31922C31.9718 8.44527 31.3384 9.07551 31.1484 9.20156Z" fill="black"/>
</svg>
